<?xml version="1.0" encoding="UTF-8" standalone="no"?>
<svg
   xmlns:dc="http://purl.org/dc/elements/1.1/"
   xmlns:cc="http://creativecommons.org/ns#"
   xmlns:rdf="http://www.w3.org/1999/02/22-rdf-syntax-ns#"
   xmlns:svg="http://www.w3.org/2000/svg"
   xmlns="http://www.w3.org/2000/svg"
   xmlns:sodipodi="http://sodipodi.sourceforge.net/DTD/sodipodi-0.dtd"
   xmlns:inkscape="http://www.inkscape.org/namespaces/inkscape"
   sodipodi:docname="dwt.svg"
   inkscape:version="1.0 (4035a4fb49, 2020-05-01)"
   id="svg472"
   version="1.1"
   viewBox="0 0 152.59006 48.848301"
   height="48.848301mm"
   width="152.59006mm">
  <defs
     id="defs466">
    <clipPath
       clipPathUnits="userSpaceOnUse"
       id="clipPath502">
      <path
         d="M 0,0 H 260 V 697 H 0 Z"
         id="path500" />
    </clipPath>
    <clipPath
       clipPathUnits="userSpaceOnUse"
       id="clipPath512">
      <path
         d="M 0,0 H 260 V 697 H 0 Z"
         id="path510" />
    </clipPath>
  </defs>
  <sodipodi:namedview
     inkscape:window-maximized="1"
     inkscape:window-y="-8"
     inkscape:window-x="-8"
     inkscape:window-height="1017"
     inkscape:window-width="1920"
     fit-margin-bottom="0"
     fit-margin-right="0"
     fit-margin-left="0"
     fit-margin-top="0"
     showgrid="false"
     inkscape:document-rotation="0"
     inkscape:current-layer="layer1"
     inkscape:document-units="mm"
     inkscape:cy="390.71921"
     inkscape:cx="-61.974315"
     inkscape:zoom="0.35"
     inkscape:pageshadow="2"
     inkscape:pageopacity="0.0"
     borderopacity="1.0"
     bordercolor="#666666"
     pagecolor="#ffffff"
     id="base" />
  <metadata
     id="metadata469">
    <rdf:RDF>
      <cc:Work
         rdf:about="">
        <dc:format>image/svg+xml</dc:format>
        <dc:type
           rdf:resource="http://purl.org/dc/dcmitype/StillImage" />
        <dc:title></dc:title>
      </cc:Work>
    </rdf:RDF>
  </metadata>
  <g
     transform="translate(-27.35868,-44.788876)"
     id="layer1"
     inkscape:groupmode="layer"
     inkscape:label="Layer 1">
    <g
       transform="matrix(0,0.23140811,0.23140811,0,24.951584,39.441396)"
       id="g508"
       clip-path="url(#clipPath512)">
      <path
         d="m 129,117.2 h 34.7 v -55 H 129 Z m 69.5,0.8 h 34.7 V 63 h -34.7 z m -70.3,63.5 h 34.7 v -37.2 h -34.7 z m 71.1,-0.8 h 34.8 v -37.3 h -34.8 z"
         style="fill:none;stroke:#000000;stroke-width:0.2;stroke-linecap:butt;stroke-linejoin:miter;stroke-miterlimit:1.42;stroke-dasharray:none;stroke-opacity:1"
         id="path514" />
      <text
         transform="matrix(0,1,1,0,155.1,72.6)"
         style="font-variant:normal;font-weight:normal;font-size:24px;font-family:Helvetica;-inkscape-font-specification:Helvetica;writing-mode:lr-tb;fill:#000000;fill-opacity:1;fill-rule:nonzero;stroke:none"
         id="text518"><tspan
           x="0"
           y="0"
           id="tspan516">H</tspan></text>
      <text
         transform="matrix(0,1,1,0,224.2992,71.2008)"
         style="font-variant:normal;font-weight:normal;font-size:24px;font-family:Helvetica;-inkscape-font-specification:Helvetica;writing-mode:lr-tb;fill:#000000;fill-opacity:1;fill-rule:nonzero;stroke:none"
         id="text522"><tspan
           x="0"
           y="0"
           id="tspan520">H</tspan></text>
      <text
         transform="matrix(0,1,1,0,158.8,91.6)"
         style="font-variant:normal;font-weight:normal;font-size:11.9px;font-family:Helvetica;-inkscape-font-specification:Helvetica;writing-mode:lr-tb;fill:#000000;fill-opacity:1;fill-rule:nonzero;stroke:none"
         id="text526"><tspan
           x="0"
           y="0"
           id="tspan524">0</tspan></text>
      <text
         transform="matrix(0,1,1,0,227.4999,89.89949)"
         style="font-variant:normal;font-weight:normal;font-size:11.9px;font-family:Helvetica;-inkscape-font-specification:Helvetica;writing-mode:lr-tb;fill:#000000;fill-opacity:1;fill-rule:nonzero;stroke:none"
         id="text530"><tspan
           x="0"
           y="0"
           id="tspan528">1</tspan></text>
      <path
         d="m 137,153.9 h 12.6"
         style="fill:none;stroke:#000000;stroke-width:0.2;stroke-linecap:butt;stroke-linejoin:miter;stroke-miterlimit:1.42;stroke-dasharray:none;stroke-opacity:1"
         id="path532" />
      <path
         d="m 156.7,153.9 -7.1,1.7 v -3.5 l 7.1,1.8"
         style="fill:#000000;fill-opacity:1;fill-rule:evenodd;stroke:none"
         id="path534" />
      <path
         d="m 156.7,153.9 -7.1,1.7 v -3.5 z m 48.8,-1.1 h 12.8"
         style="fill:none;stroke:#000000;stroke-width:0.2;stroke-linecap:butt;stroke-linejoin:miter;stroke-miterlimit:1.42;stroke-dasharray:none;stroke-opacity:1"
         id="path536" />
      <path
         d="m 225.4,152.8 -7.1,1.8 V 151 l 7.1,1.8"
         style="fill:#000000;fill-opacity:1;fill-rule:evenodd;stroke:none"
         id="path538" />
      <path
         d="m 225.4,152.8 -7.1,1.8 V 151 Z M 177.7,20.1 v 25.5"
         style="fill:none;stroke:#000000;stroke-width:0.2;stroke-linecap:butt;stroke-linejoin:miter;stroke-miterlimit:1.42;stroke-dasharray:none;stroke-opacity:1"
         id="path540" />
      <text
         transform="matrix(0,1,1,0,170.1,10.3)"
         style="font-variant:normal;font-weight:normal;font-size:23.2px;font-family:Helvetica;-inkscape-font-specification:Helvetica;writing-mode:lr-tb;fill:#000000;fill-opacity:1;fill-rule:nonzero;stroke:none"
         id="text544"><tspan
           x="0"
           y="0"
           id="tspan542">X</tspan></text>
      <path
         d="m 145.2,117.2 v 20"
         style="fill:none;stroke:#000000;stroke-width:0.2;stroke-linecap:butt;stroke-linejoin:miter;stroke-miterlimit:1.42;stroke-dasharray:none;stroke-opacity:1"
         id="path546" />
      <path
         d="m 145.2,144.3 -1.8,-7.1 h 3.5 l -1.7,7.1"
         style="fill:#000000;fill-opacity:1;fill-rule:evenodd;stroke:none"
         id="path548" />
      <path
         d="m 145.2,144.3 -1.8,-7.1 h 3.5 z m 70.2,-26.2 v 18.2"
         style="fill:none;stroke:#000000;stroke-width:0.2;stroke-linecap:butt;stroke-linejoin:miter;stroke-miterlimit:1.42;stroke-dasharray:none;stroke-opacity:1"
         id="path550" />
      <path
         d="m 215.4,143.4 -1.8,-7.1 h 3.6 l -1.8,7.1"
         style="fill:#000000;fill-opacity:1;fill-rule:evenodd;stroke:none"
         id="path552" />
      <path
         d="m 215.4,143.4 -1.8,-7.1 h 3.6 z M 177.6,45.6 h -32 m 32,0 h 38.7 m 0,0 v 10.6"
         style="fill:none;stroke:#000000;stroke-width:0.2;stroke-linecap:butt;stroke-linejoin:miter;stroke-miterlimit:1.42;stroke-dasharray:none;stroke-opacity:1"
         id="path554" />
      <path
         d="m 216.3,63.3 -1.8,-7.1 h 3.6 l -1.8,7.1"
         style="fill:#000000;fill-opacity:1;fill-rule:evenodd;stroke:none"
         id="path556" />
      <path
         d="m 216.3,63.3 -1.8,-7.1 h 3.6 z M 145.6,45.6 v 9.8"
         style="fill:none;stroke:#000000;stroke-width:0.2;stroke-linecap:butt;stroke-linejoin:miter;stroke-miterlimit:1.42;stroke-dasharray:none;stroke-opacity:1"
         id="path558" />
      <path
         d="m 145.6,62.5 -1.8,-7.1 h 3.5 l -1.7,7.1"
         style="fill:#000000;fill-opacity:1;fill-rule:evenodd;stroke:none"
         id="path560" />
      <path
         d="m 145.6,62.5 -1.8,-7.1 h 3.5 z M 97.5,278.6 h 34.8 v -55 H 97.5 Z m 69.5,0.9 h 34.8 v -55 H 167 Z m -70.3,64.2 h 34.7 V 306.4 H 96.7 Z m 71.2,-0.9 h 34.7 v -37.2 h -34.7 z"
         style="fill:none;stroke:#000000;stroke-width:0.2;stroke-linecap:butt;stroke-linejoin:miter;stroke-miterlimit:1.42;stroke-dasharray:none;stroke-opacity:1"
         id="path562" />
      <text
         transform="matrix(0,1,1,0,123.6,234)"
         style="font-variant:normal;font-weight:normal;font-size:24px;font-family:Helvetica;-inkscape-font-specification:Helvetica;writing-mode:lr-tb;fill:#000000;fill-opacity:1;fill-rule:nonzero;stroke:none"
         id="text566"><tspan
           x="0"
           y="0"
           id="tspan564">H</tspan></text>
      <text
         transform="matrix(0,1,1,0,192.9,232.6992)"
         style="font-variant:normal;font-weight:normal;font-size:24px;font-family:Helvetica;-inkscape-font-specification:Helvetica;writing-mode:lr-tb;fill:#000000;fill-opacity:1;fill-rule:nonzero;stroke:none"
         id="text570"><tspan
           x="0"
           y="0"
           id="tspan568">H</tspan></text>
      <text
         transform="matrix(0,1,1,0,127.4,253.1)"
         style="font-variant:normal;font-weight:normal;font-size:11.9px;font-family:Helvetica;-inkscape-font-specification:Helvetica;writing-mode:lr-tb;fill:#000000;fill-opacity:1;fill-rule:nonzero;stroke:none"
         id="text574"><tspan
           x="0"
           y="0"
           id="tspan572">0</tspan></text>
      <text
         transform="matrix(0,1,1,0,195.9999,251.3995)"
         style="font-variant:normal;font-weight:normal;font-size:11.9px;font-family:Helvetica;-inkscape-font-specification:Helvetica;writing-mode:lr-tb;fill:#000000;fill-opacity:1;fill-rule:nonzero;stroke:none"
         id="text578"><tspan
           x="0"
           y="0"
           id="tspan576">1</tspan></text>
      <path
         d="m 105,316.6 h 12.8"
         style="fill:none;stroke:#000000;stroke-width:0.2;stroke-linecap:butt;stroke-linejoin:miter;stroke-miterlimit:1.42;stroke-dasharray:none;stroke-opacity:1"
         id="path580" />
      <path
         d="m 124.9,316.6 -7.1,1.7 v -3.5 l 7.1,1.8"
         style="fill:#000000;fill-opacity:1;fill-rule:evenodd;stroke:none"
         id="path582" />
      <path
         d="m 124.9,316.6 -7.1,1.7 v -3.5 z m 48.7,-1.1 h 12.7"
         style="fill:none;stroke:#000000;stroke-width:0.2;stroke-linecap:butt;stroke-linejoin:miter;stroke-miterlimit:1.42;stroke-dasharray:none;stroke-opacity:1"
         id="path584" />
      <path
         d="m 193.4,315.5 -7.1,1.8 v -3.6 l 7.1,1.8"
         style="fill:#000000;fill-opacity:1;fill-rule:evenodd;stroke:none"
         id="path586" />
      <path
         d="m 193.4,315.5 -7.1,1.8 v -3.6 z M 145.6,182 v 25.4 m -32.4,71.8 v 19.9"
         style="fill:none;stroke:#000000;stroke-width:0.2;stroke-linecap:butt;stroke-linejoin:miter;stroke-miterlimit:1.42;stroke-dasharray:none;stroke-opacity:1"
         id="path588" />
      <path
         d="m 113.2,306.2 -1.8,-7.1 h 3.6 l -1.8,7.1"
         style="fill:#000000;fill-opacity:1;fill-rule:evenodd;stroke:none"
         id="path590" />
      <path
         d="m 113.2,306.2 -1.8,-7.1 h 3.6 z m 70.3,-26.1 v 18.1"
         style="fill:none;stroke:#000000;stroke-width:0.2;stroke-linecap:butt;stroke-linejoin:miter;stroke-miterlimit:1.42;stroke-dasharray:none;stroke-opacity:1"
         id="path592" />
      <path
         d="m 183.5,305.3 -1.8,-7.1 h 3.6 l -1.8,7.1"
         style="fill:#000000;fill-opacity:1;fill-rule:evenodd;stroke:none"
         id="path594" />
      <path
         d="m 183.5,305.3 -1.8,-7.1 h 3.6 z m -37.9,-97.9 h -32 m 32,0 h 38.7 m 0,0 v 10.5"
         style="fill:none;stroke:#000000;stroke-width:0.2;stroke-linecap:butt;stroke-linejoin:miter;stroke-miterlimit:1.42;stroke-dasharray:none;stroke-opacity:1"
         id="path596" />
      <path
         d="m 184.3,225 -1.7,-7.1 h 3.5 l -1.8,7.1"
         style="fill:#000000;fill-opacity:1;fill-rule:evenodd;stroke:none"
         id="path598" />
      <path
         d="m 184.3,225 -1.7,-7.1 h 3.5 z m -70.7,-17.6 v 9.7"
         style="fill:none;stroke:#000000;stroke-width:0.2;stroke-linecap:butt;stroke-linejoin:miter;stroke-miterlimit:1.42;stroke-dasharray:none;stroke-opacity:1"
         id="path600" />
      <path
         d="m 113.6,224.2 -1.8,-7.1 h 3.6 l -1.8,7.1"
         style="fill:#000000;fill-opacity:1;fill-rule:evenodd;stroke:none"
         id="path602" />
      <path
         d="m 113.6,224.2 -1.8,-7.1 h 3.6 z m 70.2,118.9 v 39.4 M 113,344.1 v 39.4 M 53.1,565.2 h 34.7 v -55 H 53.1 Z m 69.5,0.9 h 34.7 v -55 H 122.6 Z M 52.2,629.6 H 87 V 592.3 H 52.2 Z m 71.2,-0.9 h 34.7 v -37.2 h -34.7 z"
         style="fill:none;stroke:#000000;stroke-width:0.2;stroke-linecap:butt;stroke-linejoin:miter;stroke-miterlimit:1.42;stroke-dasharray:none;stroke-opacity:1"
         id="path604" />
      <text
         transform="matrix(0,1,1,0,79.1,520.6)"
         style="font-variant:normal;font-weight:normal;font-size:24px;font-family:Helvetica;-inkscape-font-specification:Helvetica;writing-mode:lr-tb;fill:#000000;fill-opacity:1;fill-rule:nonzero;stroke:none"
         id="text608"><tspan
           x="0"
           y="0"
           id="tspan606">H</tspan></text>
      <text
         transform="matrix(0,1,1,0,148.4,519.2993)"
         style="font-variant:normal;font-weight:normal;font-size:24px;font-family:Helvetica;-inkscape-font-specification:Helvetica;writing-mode:lr-tb;fill:#000000;fill-opacity:1;fill-rule:nonzero;stroke:none"
         id="text612"><tspan
           x="0"
           y="0"
           id="tspan610">H</tspan></text>
      <text
         transform="matrix(0,1,1,0,82.9,539.7)"
         style="font-variant:normal;font-weight:normal;font-size:11.9px;font-family:Helvetica;-inkscape-font-specification:Helvetica;writing-mode:lr-tb;fill:#000000;fill-opacity:1;fill-rule:nonzero;stroke:none"
         id="text616"><tspan
           x="0"
           y="0"
           id="tspan614">0</tspan></text>
      <text
         transform="matrix(0,1,1,0,151.5999,537.9995)"
         style="font-variant:normal;font-weight:normal;font-size:11.9px;font-family:Helvetica;-inkscape-font-specification:Helvetica;writing-mode:lr-tb;fill:#000000;fill-opacity:1;fill-rule:nonzero;stroke:none"
         id="text620"><tspan
           x="0"
           y="0"
           id="tspan618">1</tspan></text>
      <path
         d="M 60.5,602.9 H 73.2"
         style="fill:none;stroke:#000000;stroke-width:0.2;stroke-linecap:butt;stroke-linejoin:miter;stroke-miterlimit:1.42;stroke-dasharray:none;stroke-opacity:1"
         id="path622" />
      <path
         d="m 80.2,602.9 -7,1.8 v -3.5 l 7,1.7"
         style="fill:#000000;fill-opacity:1;fill-rule:evenodd;stroke:none"
         id="path624" />
      <path
         d="m 80.2,602.9 -7,1.8 v -3.5 z m 48.9,-1.1 h 12.6"
         style="fill:none;stroke:#000000;stroke-width:0.2;stroke-linecap:butt;stroke-linejoin:miter;stroke-miterlimit:1.42;stroke-dasharray:none;stroke-opacity:1"
         id="path626" />
      <path
         d="m 148.8,601.8 -7.1,1.8 V 600 l 7.1,1.8"
         style="fill:#000000;fill-opacity:1;fill-rule:evenodd;stroke:none"
         id="path628" />
      <path
         d="m 148.8,601.8 -7.1,1.8 V 600 Z M 101.1,469 v 25.4 m -32.5,71.8 v 19.9"
         style="fill:none;stroke:#000000;stroke-width:0.2;stroke-linecap:butt;stroke-linejoin:miter;stroke-miterlimit:1.42;stroke-dasharray:none;stroke-opacity:1"
         id="path630" />
      <path
         d="m 68.6,593.2 -1.8,-7.1 h 3.6 l -1.8,7.1"
         style="fill:#000000;fill-opacity:1;fill-rule:evenodd;stroke:none"
         id="path632" />
      <path
         d="m 68.6,593.2 -1.8,-7.1 h 3.6 z m 70.2,-26.1 v 18.1"
         style="fill:none;stroke:#000000;stroke-width:0.2;stroke-linecap:butt;stroke-linejoin:miter;stroke-miterlimit:1.42;stroke-dasharray:none;stroke-opacity:1"
         id="path634" />
      <path
         d="m 138.8,592.3 -1.7,-7.1 h 3.5 l -1.8,7.1"
         style="fill:#000000;fill-opacity:1;fill-rule:evenodd;stroke:none"
         id="path636" />
      <path
         d="m 138.8,592.3 -1.7,-7.1 h 3.5 z m -37.7,-97.9 h -32 m 32,0 h 38.7 m 0,0 v 10.5"
         style="fill:none;stroke:#000000;stroke-width:0.2;stroke-linecap:butt;stroke-linejoin:miter;stroke-miterlimit:1.42;stroke-dasharray:none;stroke-opacity:1"
         id="path638" />
      <path
         d="m 139.8,512 -1.7,-7.1 h 3.5 l -1.8,7.1"
         style="fill:#000000;fill-opacity:1;fill-rule:evenodd;stroke:none"
         id="path640" />
      <path
         d="m 139.8,512 -1.7,-7.1 h 3.5 z M 69.1,494.4 v 9.8"
         style="fill:none;stroke:#000000;stroke-width:0.2;stroke-linecap:butt;stroke-linejoin:miter;stroke-miterlimit:1.42;stroke-dasharray:none;stroke-opacity:1"
         id="path642" />
      <path
         d="m 69.1,511.2 -1.8,-7 h 3.6 l -1.8,7"
         style="fill:#000000;fill-opacity:1;fill-rule:evenodd;stroke:none"
         id="path644" />
      <path
         d="m 69.1,511.2 -1.8,-7 h 3.6 z m 70.1,118.2 v 39.4 M 68.4,630.4 v 39.4 M 216.5,181.1 v 25.5"
         style="fill:none;stroke:#000000;stroke-width:0.2;stroke-linecap:butt;stroke-linejoin:miter;stroke-miterlimit:1.42;stroke-dasharray:none;stroke-opacity:1"
         id="path646" />
      <path
         d="m 140.3,392.3 v 78.4"
         style="fill:none;stroke:#000000;stroke-width:0.2;stroke-linecap:butt;stroke-linejoin:miter;stroke-miterlimit:1.42;stroke-dasharray:10, 6;stroke-dashoffset:5;stroke-opacity:1"
         id="path648" />
      <text
         transform="matrix(0,1,1,0,89.7,65.1)"
         style="font-variant:normal;font-weight:normal;font-size:22.2px;font-family:Helvetica;-inkscape-font-specification:Helvetica;writing-mode:lr-tb;fill:#000000;fill-opacity:1;fill-rule:nonzero;stroke:none"
         id="text652"><tspan
           x="0 12.3654 23.4876 29.6814 35.853001 46.975201 53.168999 65.534401 77.899803"
           y="0"
           sodipodi:role="line"
           id="tspan650">1st stage</tspan></text>
      <text
         transform="matrix(0,1,1,0,75.19897,236.6993)"
         style="font-variant:normal;font-weight:normal;font-size:22.2px;font-family:Helvetica;-inkscape-font-specification:Helvetica;writing-mode:lr-tb;fill:#000000;fill-opacity:1;fill-rule:nonzero;stroke:none"
         id="text656"><tspan
           x="0 12.3876 24.7752 37.1628 43.3344 54.478802 60.694801 73.082397 85.470001"
           y="0"
           sodipodi:role="line"
           id="tspan654">2nd stage</tspan></text>
      <text
         transform="matrix(0,1,1,0,38.99965,519.6983)"
         style="font-variant:normal;font-weight:normal;font-size:22.2px;font-family:Helvetica;-inkscape-font-specification:Helvetica;writing-mode:lr-tb;fill:#000000;fill-opacity:1;fill-rule:nonzero;stroke:none"
         id="text660"><tspan
           x="0 12.3654 18.5592 30.924601 37.096199 48.218399 54.412201 66.777603 79.142998"
           y="0"
           sodipodi:role="line"
           id="tspan658">Lth stage</tspan></text>
      <text
         transform="matrix(0,1,1,0,152.7991,158.3978)"
         style="font-style:italic;font-variant:normal;font-weight:bold;font-size:22.2px;font-family:Helvetica;-inkscape-font-specification:Helvetica-BoldOblique;writing-mode:lr-tb;fill:#000000;fill-opacity:1;fill-rule:nonzero;stroke:none"
         id="text664"><tspan
           x="0"
           y="0"
           id="tspan662">2</tspan></text>
      <text
         transform="matrix(0,1,1,0,225.1,158.3978)"
         style="font-style:italic;font-variant:normal;font-weight:bold;font-size:22.2px;font-family:Helvetica;-inkscape-font-specification:Helvetica-BoldOblique;writing-mode:lr-tb;fill:#000000;fill-opacity:1;fill-rule:nonzero;stroke:none"
         id="text668"><tspan
           x="0"
           y="0"
           id="tspan666">2</tspan></text>
      <text
         transform="matrix(0,1,1,0,122.1009,320.8973)"
         style="font-style:italic;font-variant:normal;font-weight:bold;font-size:22.2px;font-family:Helvetica;-inkscape-font-specification:Helvetica-BoldOblique;writing-mode:lr-tb;fill:#000000;fill-opacity:1;fill-rule:nonzero;stroke:none"
         id="text672"><tspan
           x="0"
           y="0"
           id="tspan670">2</tspan></text>
      <text
         transform="matrix(0,1,1,0,192.6015,320.8973)"
         style="font-style:italic;font-variant:normal;font-weight:bold;font-size:22.2px;font-family:Helvetica;-inkscape-font-specification:Helvetica-BoldOblique;writing-mode:lr-tb;fill:#000000;fill-opacity:1;fill-rule:nonzero;stroke:none"
         id="text676"><tspan
           x="0"
           y="0"
           id="tspan674">2</tspan></text>
      <text
         transform="matrix(0,1,1,0,149.2005,605.6967)"
         style="font-style:italic;font-variant:normal;font-weight:bold;font-size:22.2px;font-family:Helvetica;-inkscape-font-specification:Helvetica-BoldOblique;writing-mode:lr-tb;fill:#000000;fill-opacity:1;fill-rule:nonzero;stroke:none"
         id="text680"><tspan
           x="0"
           y="0"
           id="tspan678">2</tspan></text>
      <text
         transform="matrix(0,1,1,0,76.89949,605.6967)"
         style="font-style:italic;font-variant:normal;font-weight:bold;font-size:22.2px;font-family:Helvetica;-inkscape-font-specification:Helvetica-BoldOblique;writing-mode:lr-tb;fill:#000000;fill-opacity:1;fill-rule:nonzero;stroke:none"
         id="text684"><tspan
           x="0"
           y="0"
           id="tspan682">2</tspan></text>
    </g>
  </g>
</svg>
