<?xml version="1.0" encoding="UTF-8" standalone="no"?>
<svg
   xmlns:dc="http://purl.org/dc/elements/1.1/"
   xmlns:cc="http://creativecommons.org/ns#"
   xmlns:rdf="http://www.w3.org/1999/02/22-rdf-syntax-ns#"
   xmlns:svg="http://www.w3.org/2000/svg"
   xmlns="http://www.w3.org/2000/svg"
   xmlns:sodipodi="http://sodipodi.sourceforge.net/DTD/sodipodi-0.dtd"
   xmlns:inkscape="http://www.inkscape.org/namespaces/inkscape"
   sodipodi:docname="laplacian.svg"
   inkscape:version="1.0 (4035a4fb49, 2020-05-01)"
   id="svg8"
   version="1.1"
   viewBox="0 0 116.59644 62.918163"
   height="62.918163mm"
   width="116.59644mm">
  <defs
     id="defs2">
    <clipPath
       clipPathUnits="userSpaceOnUse"
       id="clipPath48">
      <path
         d="M 0,0 H 451 V 697 H 0 Z"
         id="path46" />
    </clipPath>
  </defs>
  <sodipodi:namedview
     inkscape:window-maximized="1"
     inkscape:window-y="1072"
     inkscape:window-x="-5"
     inkscape:window-height="1017"
     inkscape:window-width="1920"
     fit-margin-bottom="0"
     fit-margin-right="0"
     fit-margin-left="0"
     fit-margin-top="0"
     showgrid="false"
     inkscape:document-rotation="0"
     inkscape:current-layer="layer1"
     inkscape:document-units="mm"
     inkscape:cy="266.1567"
     inkscape:cx="127.22638"
     inkscape:zoom="1.4"
     inkscape:pageshadow="2"
     inkscape:pageopacity="0.0"
     borderopacity="1.0"
     bordercolor="#666666"
     pagecolor="#ffffff"
     id="base" />
  <metadata
     id="metadata5">
    <rdf:RDF>
      <cc:Work
         rdf:about="">
        <dc:format>image/svg+xml</dc:format>
        <dc:type
           rdf:resource="http://purl.org/dc/dcmitype/StillImage" />
        <dc:title></dc:title>
      </cc:Work>
    </rdf:RDF>
  </metadata>
  <g
     transform="translate(-46.986963,-47.46272)"
     id="layer1"
     inkscape:groupmode="layer"
     inkscape:label="Layer 1">
    <g
       transform="matrix(0,0.16895586,0.16895586,0,46.716633,40.057256)"
       id="g44"
       clip-path="url(#clipPath48)">
      <path
         d="m 51,170.5 h 53.7 V 86.2 H 51 Z M 238,342 h 53.7 V 257.7 H 238 Z M 49.7,269.2 h 53.7 V 212.1 H 49.7 Z m 95.6,58.3 H 199 v -57.1 h -53.7 z"
         style="fill:none;stroke:#000000;stroke-width:0.2;stroke-linecap:butt;stroke-linejoin:miter;stroke-miterlimit:1.42;stroke-dasharray:none;stroke-opacity:1"
         id="path50" />
      <text
         transform="matrix(0,1,1,0,90.2,236.5)"
         style="font-variant:normal;font-weight:normal;font-size:28.7px;font-family:Helvetica;-inkscape-font-specification:Helvetica;writing-mode:lr-tb;fill:#000000;fill-opacity:1;fill-rule:nonzero;stroke:none"
         id="text54"><tspan
           x="0"
           y="0"
           id="tspan52">2</tspan></text>
      <path
         d="M 63.4,227 H 82.5"
         style="fill:none;stroke:#000000;stroke-width:0.2;stroke-linecap:butt;stroke-linejoin:miter;stroke-miterlimit:1.42;stroke-dasharray:none;stroke-opacity:1"
         id="path56" />
      <path
         d="m 93.8,227 -11.3,2.8 v -5.6 l 11.3,2.8"
         style="fill:#000000;fill-opacity:1;fill-rule:evenodd;stroke:none"
         id="path58" />
      <path
         d="m 93.8,227 -11.3,2.8 v -5.6 z"
         style="fill:none;stroke:#000000;stroke-width:0.2;stroke-linecap:butt;stroke-linejoin:miter;stroke-miterlimit:1.42;stroke-dasharray:none;stroke-opacity:1"
         id="path60" />
      <text
         transform="matrix(0,1,1,0,183.2,295.7)"
         style="font-variant:normal;font-weight:normal;font-size:28.7px;font-family:Helvetica;-inkscape-font-specification:Helvetica;writing-mode:lr-tb;fill:#000000;fill-opacity:1;fill-rule:nonzero;stroke:none"
         id="text64"><tspan
           x="0"
           y="0"
           id="tspan62">2</tspan></text>
      <path
         d="M 186.6,286.4 H 167.4"
         style="fill:none;stroke:#000000;stroke-width:0.2;stroke-linecap:butt;stroke-linejoin:miter;stroke-miterlimit:1.42;stroke-dasharray:none;stroke-opacity:1"
         id="path66" />
      <path
         d="m 156,286.4 11.4,-2.9 v 5.7 L 156,286.4"
         style="fill:#000000;fill-opacity:1;fill-rule:evenodd;stroke:none"
         id="path68" />
      <path
         d="m 156,286.4 11.4,-2.9 v 5.7 z"
         style="fill:none;stroke:#000000;stroke-width:0.2;stroke-linecap:butt;stroke-linejoin:miter;stroke-miterlimit:1.42;stroke-dasharray:none;stroke-opacity:1"
         id="path70" />
      <path
         d="m 371.68,299.34 c 0,8.385 -6.765,15.191 -15.1,15.191 -8.335,0 -15.1,-6.806 -15.1,-15.191 0,-8.385 6.765,-15.191 15.1,-15.191 8.335,0 15.1,6.806 15.1,15.191"
         style="fill:none;stroke:#000000;stroke-width:0.2;stroke-linecap:butt;stroke-linejoin:miter;stroke-miterlimit:1.42;stroke-dasharray:none;stroke-opacity:1"
         id="path72" />
      <path
         d="m 75.8,170.7 v 30.1"
         style="fill:none;stroke:#000000;stroke-width:0.2;stroke-linecap:butt;stroke-linejoin:miter;stroke-miterlimit:1.42;stroke-dasharray:none;stroke-opacity:1"
         id="path74" />
      <path
         d="M 75.8,212.2 73,200.8 h 5.7 l -2.9,11.4"
         style="fill:#000000;fill-opacity:1;fill-rule:evenodd;stroke:none"
         id="path76" />
      <path
         d="M 75.8,212.2 73,200.8 h 5.7 z m 281.3,94.9 v -14.5 m -157.1,7 h 26.6"
         style="fill:none;stroke:#000000;stroke-width:0.2;stroke-linecap:butt;stroke-linejoin:miter;stroke-miterlimit:1.42;stroke-dasharray:none;stroke-opacity:1"
         id="path78" />
      <path
         d="m 237.9,299.6 -11.3,2.8 v -5.7 l 11.3,2.9"
         style="fill:#000000;fill-opacity:1;fill-rule:evenodd;stroke:none"
         id="path80" />
      <path
         d="m 237.9,299.6 -11.3,2.8 v -5.7 z m 112.7,0.2 h 12.3"
         style="fill:none;stroke:#000000;stroke-width:0.2;stroke-linecap:butt;stroke-linejoin:miter;stroke-miterlimit:1.42;stroke-dasharray:none;stroke-opacity:1"
         id="path82" />
      <text
         transform="matrix(0,1,1,0,84.8,111.3)"
         style="font-style:italic;font-variant:normal;font-weight:bold;font-size:26.5px;font-family:Helvetica;-inkscape-font-specification:Helvetica-BoldOblique;writing-mode:lr-tb;fill:#000000;fill-opacity:1;fill-rule:nonzero;stroke:none"
         id="text86"><tspan
           x="0"
           y="0"
           id="tspan84">h</tspan></text>
      <path
         d="m 76.7,299.4 h 57"
         style="fill:none;stroke:#000000;stroke-width:0.2;stroke-linecap:butt;stroke-linejoin:miter;stroke-miterlimit:1.42;stroke-dasharray:none;stroke-opacity:1"
         id="path88" />
      <path
         d="m 145.1,299.4 -11.4,2.8 v -5.7 l 11.4,2.9"
         style="fill:#000000;fill-opacity:1;fill-rule:evenodd;stroke:none"
         id="path90" />
      <path
         d="m 145.1,299.4 -11.4,2.8 v -5.7 z M 76,1.6 v 73.7"
         style="fill:none;stroke:#000000;stroke-width:0.2;stroke-linecap:butt;stroke-linejoin:miter;stroke-miterlimit:1.42;stroke-dasharray:none;stroke-opacity:1"
         id="path92" />
      <path
         d="M 76,86.6 73.1,75.3 h 5.7 L 76,86.6"
         style="fill:#000000;fill-opacity:1;fill-rule:evenodd;stroke:none"
         id="path94" />
      <path
         d="M 76,86.6 73.1,75.3 h 5.7 z"
         style="fill:none;stroke:#000000;stroke-width:0.2;stroke-linecap:butt;stroke-linejoin:miter;stroke-miterlimit:1.42;stroke-dasharray:none;stroke-opacity:1"
         id="path96" />
      <text
         transform="matrix(0,1,1,0,272.5,276)"
         style="font-style:italic;font-variant:normal;font-weight:bold;font-size:26.5px;font-family:Helvetica;-inkscape-font-specification:Helvetica-BoldOblique;writing-mode:lr-tb;fill:#000000;fill-opacity:1;fill-rule:nonzero;stroke:none"
         id="text100"><tspan
           x="0 14.734 22.101"
           y="0"
           sodipodi:role="line"
           id="tspan98">2 h</tspan></text>
      <path
         d="m 291.8,299.6 h 37.5"
         style="fill:none;stroke:#000000;stroke-width:0.2;stroke-linecap:butt;stroke-linejoin:miter;stroke-miterlimit:1.42;stroke-dasharray:none;stroke-opacity:1"
         id="path102" />
      <path
         d="m 340.7,299.6 -11.4,2.8 v -5.7 l 11.4,2.9"
         style="fill:#000000;fill-opacity:1;fill-rule:evenodd;stroke:none"
         id="path104" />
      <path
         d="m 340.7,299.6 -11.4,2.8 v -5.7 z"
         style="fill:none;stroke:#000000;stroke-width:0.2;stroke-linecap:butt;stroke-linejoin:miter;stroke-miterlimit:1.42;stroke-dasharray:none;stroke-opacity:1"
         id="path106" />
      <text
         transform="matrix(0,1,1,0,341.8,303.9)"
         style="font-style:italic;font-variant:normal;font-weight:bold;font-size:26.5px;font-family:Helvetica;-inkscape-font-specification:Helvetica-BoldOblique;writing-mode:lr-tb;fill:#000000;fill-opacity:1;fill-rule:nonzero;stroke:none"
         id="text110"><tspan
           x="0"
           y="0"
           id="tspan108">-</tspan></text>
      <path
         d="M 76.9,50.7 H 358.4 V 272.6"
         style="fill:none;stroke:#000000;stroke-width:0.2;stroke-linecap:butt;stroke-linejoin:miter;stroke-miterlimit:1.42;stroke-dasharray:none;stroke-opacity:1"
         id="path112" />
      <path
         d="m 358.4,283.9 -2.9,-11.3 h 5.7 l -2.8,11.3"
         style="fill:#000000;fill-opacity:1;fill-rule:evenodd;stroke:none"
         id="path114" />
      <path
         d="m 358.4,283.9 -2.9,-11.3 h 5.7 z m 13.5,15.4 h 32.9"
         style="fill:none;stroke:#000000;stroke-width:0.2;stroke-linecap:butt;stroke-linejoin:miter;stroke-miterlimit:1.42;stroke-dasharray:none;stroke-opacity:1"
         id="path116" />
      <path
         d="m 416.1,299.3 -11.3,2.8 v -5.7 l 11.3,2.9"
         style="fill:#000000;fill-opacity:1;fill-rule:evenodd;stroke:none"
         id="path118" />
      <path
         d="m 416.1,299.3 -11.3,2.8 v -5.7 z"
         style="fill:none;stroke:#000000;stroke-width:0.2;stroke-linecap:butt;stroke-linejoin:miter;stroke-miterlimit:1.42;stroke-dasharray:none;stroke-opacity:1"
         id="path120" />
      <text
         transform="matrix(0,1,1,0,352.3,256.3)"
         style="font-style:italic;font-variant:normal;font-weight:bold;font-size:26.5px;font-family:Helvetica;-inkscape-font-specification:Helvetica-BoldOblique;writing-mode:lr-tb;fill:#000000;fill-opacity:1;fill-rule:nonzero;stroke:none"
         id="text124"><tspan
           x="0"
           y="0"
           id="tspan122">+</tspan></text>
      <path
         d="m 76.8,269.2 v 77.1 M 51.2,515.5 h 53.7 V 431.2 H 51.2 Z m 187,171.5 h 53.7 V 602.7 H 238.2 Z M 49.9,614.2 h 53.8 V 557.1 H 49.9 Z m 95.6,58.3 h 53.7 v -57.1 h -53.7 z"
         style="fill:none;stroke:#000000;stroke-width:0.2;stroke-linecap:butt;stroke-linejoin:miter;stroke-miterlimit:1.42;stroke-dasharray:none;stroke-opacity:1"
         id="path126" />
      <text
         transform="matrix(0,1,1,0,90.4,581.5)"
         style="font-variant:normal;font-weight:normal;font-size:28.7px;font-family:Helvetica;-inkscape-font-specification:Helvetica;writing-mode:lr-tb;fill:#000000;fill-opacity:1;fill-rule:nonzero;stroke:none"
         id="text130"><tspan
           x="0"
           y="0"
           id="tspan128">2</tspan></text>
      <path
         d="M 63.4,572.2 H 82.6"
         style="fill:none;stroke:#000000;stroke-width:0.2;stroke-linecap:butt;stroke-linejoin:miter;stroke-miterlimit:1.42;stroke-dasharray:none;stroke-opacity:1"
         id="path132" />
      <path
         d="M 93.9,572.2 82.6,575 v -5.6 l 11.3,2.8"
         style="fill:#000000;fill-opacity:1;fill-rule:evenodd;stroke:none"
         id="path134" />
      <path
         d="M 93.9,572.2 82.6,575 v -5.6 z"
         style="fill:none;stroke:#000000;stroke-width:0.2;stroke-linecap:butt;stroke-linejoin:miter;stroke-miterlimit:1.42;stroke-dasharray:none;stroke-opacity:1"
         id="path136" />
      <text
         transform="matrix(0,1,1,0,183.4,640.7)"
         style="font-variant:normal;font-weight:normal;font-size:28.7px;font-family:Helvetica;-inkscape-font-specification:Helvetica;writing-mode:lr-tb;fill:#000000;fill-opacity:1;fill-rule:nonzero;stroke:none"
         id="text140"><tspan
           x="0"
           y="0"
           id="tspan138">2</tspan></text>
      <path
         d="M 186.7,631.6 H 167.5"
         style="fill:none;stroke:#000000;stroke-width:0.2;stroke-linecap:butt;stroke-linejoin:miter;stroke-miterlimit:1.42;stroke-dasharray:none;stroke-opacity:1"
         id="path142" />
      <path
         d="m 156.2,631.6 11.3,-2.8 v 5.7 l -11.3,-2.9"
         style="fill:#000000;fill-opacity:1;fill-rule:evenodd;stroke:none"
         id="path144" />
      <path
         d="m 156.2,631.6 11.3,-2.8 v 5.7 z"
         style="fill:none;stroke:#000000;stroke-width:0.2;stroke-linecap:butt;stroke-linejoin:miter;stroke-miterlimit:1.42;stroke-dasharray:none;stroke-opacity:1"
         id="path146" />
      <path
         d="m 371.92,644.34 c 0,8.385 -6.765,15.191 -15.1,15.191 -8.335,0 -15.1,-6.806 -15.1,-15.191 0,-8.385 6.765,-15.191 15.1,-15.191 8.335,0 15.1,6.806 15.1,15.191"
         style="fill:none;stroke:#000000;stroke-width:0.2;stroke-linecap:butt;stroke-linejoin:miter;stroke-miterlimit:1.42;stroke-dasharray:none;stroke-opacity:1"
         id="path148" />
      <path
         d="m 76,515.9 v 30.2"
         style="fill:none;stroke:#000000;stroke-width:0.2;stroke-linecap:butt;stroke-linejoin:miter;stroke-miterlimit:1.42;stroke-dasharray:none;stroke-opacity:1"
         id="path150" />
      <path
         d="m 76,557.4 -2.9,-11.3 h 5.7 L 76,557.4"
         style="fill:#000000;fill-opacity:1;fill-rule:evenodd;stroke:none"
         id="path152" />
      <path
         d="m 76,557.4 -2.9,-11.3 h 5.7 z m 281.2,95.1 v -14.6 m -157.1,6.9 h 26.5"
         style="fill:none;stroke:#000000;stroke-width:0.2;stroke-linecap:butt;stroke-linejoin:miter;stroke-miterlimit:1.42;stroke-dasharray:none;stroke-opacity:1"
         id="path154" />
      <path
         d="m 238,644.8 -11.4,2.8 v -5.7 l 11.4,2.9"
         style="fill:#000000;fill-opacity:1;fill-rule:evenodd;stroke:none"
         id="path156" />
      <path
         d="m 238,644.8 -11.4,2.8 v -5.7 z m 112.8,0.2 h 12.1"
         style="fill:none;stroke:#000000;stroke-width:0.2;stroke-linecap:butt;stroke-linejoin:miter;stroke-miterlimit:1.42;stroke-dasharray:none;stroke-opacity:1"
         id="path158" />
      <text
         transform="matrix(0,1,1,0,85,456.3)"
         style="font-style:italic;font-variant:normal;font-weight:bold;font-size:26.5px;font-family:Helvetica;-inkscape-font-specification:Helvetica-BoldOblique;writing-mode:lr-tb;fill:#000000;fill-opacity:1;fill-rule:nonzero;stroke:none"
         id="text162"><tspan
           x="0"
           y="0"
           id="tspan160">h</tspan></text>
      <path
         d="m 76.8,644.6 h 57.1"
         style="fill:none;stroke:#000000;stroke-width:0.2;stroke-linecap:butt;stroke-linejoin:miter;stroke-miterlimit:1.42;stroke-dasharray:none;stroke-opacity:1"
         id="path164" />
      <path
         d="m 145.2,644.6 -11.3,2.8 v -5.6 l 11.3,2.8"
         style="fill:#000000;fill-opacity:1;fill-rule:evenodd;stroke:none"
         id="path166" />
      <path
         d="m 145.2,644.6 -11.3,2.8 v -5.6 z M 76,346.6 V 420"
         style="fill:none;stroke:#000000;stroke-width:0.2;stroke-linecap:butt;stroke-linejoin:miter;stroke-miterlimit:1.42;stroke-dasharray:none;stroke-opacity:1"
         id="path168" />
      <path
         d="M 76,431.4 73.2,420 h 5.7 L 76,431.4"
         style="fill:#000000;fill-opacity:1;fill-rule:evenodd;stroke:none"
         id="path170" />
      <path
         d="M 76,431.4 73.2,420 h 5.7 z"
         style="fill:none;stroke:#000000;stroke-width:0.2;stroke-linecap:butt;stroke-linejoin:miter;stroke-miterlimit:1.42;stroke-dasharray:none;stroke-opacity:1"
         id="path172" />
      <text
         transform="matrix(0,1,1,0,272.7,618.7999)"
         style="font-style:italic;font-variant:normal;font-weight:bold;font-size:26.5px;font-family:Helvetica;-inkscape-font-specification:Helvetica-BoldOblique;writing-mode:lr-tb;fill:#000000;fill-opacity:1;fill-rule:nonzero;stroke:none"
         id="text176"><tspan
           x="0 14.734 22.101"
           y="0"
           sodipodi:role="line"
           id="tspan174">2 h</tspan></text>
      <path
         d="m 292,644.8 h 37.4"
         style="fill:none;stroke:#000000;stroke-width:0.2;stroke-linecap:butt;stroke-linejoin:miter;stroke-miterlimit:1.42;stroke-dasharray:none;stroke-opacity:1"
         id="path178" />
      <path
         d="m 340.7,644.8 -11.3,2.8 v -5.7 l 11.3,2.9"
         style="fill:#000000;fill-opacity:1;fill-rule:evenodd;stroke:none"
         id="path180" />
      <path
         d="m 340.7,644.8 -11.3,2.8 v -5.7 z"
         style="fill:none;stroke:#000000;stroke-width:0.2;stroke-linecap:butt;stroke-linejoin:miter;stroke-miterlimit:1.42;stroke-dasharray:none;stroke-opacity:1"
         id="path182" />
      <text
         transform="matrix(0,1,1,0,342,648.9)"
         style="font-style:italic;font-variant:normal;font-weight:bold;font-size:26.5px;font-family:Helvetica;-inkscape-font-specification:Helvetica-BoldOblique;writing-mode:lr-tb;fill:#000000;fill-opacity:1;fill-rule:nonzero;stroke:none"
         id="text186"><tspan
           x="0"
           y="0"
           id="tspan184">-</tspan></text>
      <path
         d="M 77,395.7 H 358.4 V 617.9"
         style="fill:none;stroke:#000000;stroke-width:0.2;stroke-linecap:butt;stroke-linejoin:miter;stroke-miterlimit:1.42;stroke-dasharray:none;stroke-opacity:1"
         id="path188" />
      <path
         d="m 358.4,629.2 -2.8,-11.3 h 5.7 l -2.9,11.3"
         style="fill:#000000;fill-opacity:1;fill-rule:evenodd;stroke:none"
         id="path190" />
      <path
         d="m 358.4,629.2 -2.8,-11.3 h 5.7 z m 13.6,15.3 h 32.9"
         style="fill:none;stroke:#000000;stroke-width:0.2;stroke-linecap:butt;stroke-linejoin:miter;stroke-miterlimit:1.42;stroke-dasharray:none;stroke-opacity:1"
         id="path192" />
      <path
         d="m 416.2,644.5 -11.3,2.9 v -5.7 l 11.3,2.8"
         style="fill:#000000;fill-opacity:1;fill-rule:evenodd;stroke:none"
         id="path194" />
      <path
         d="m 416.2,644.5 -11.3,2.9 v -5.7 z"
         style="fill:none;stroke:#000000;stroke-width:0.2;stroke-linecap:butt;stroke-linejoin:miter;stroke-miterlimit:1.42;stroke-dasharray:none;stroke-opacity:1"
         id="path196" />
      <text
         transform="matrix(0,1,1,0,352.6,601.3)"
         style="font-style:italic;font-variant:normal;font-weight:bold;font-size:26.5px;font-family:Helvetica;-inkscape-font-specification:Helvetica-BoldOblique;writing-mode:lr-tb;fill:#000000;fill-opacity:1;fill-rule:nonzero;stroke:none"
         id="text200"><tspan
           x="0"
           y="0"
           id="tspan198">+</tspan></text>
      <path
         d="m 76.9,614.4 v 77.3"
         style="fill:none;stroke:#000000;stroke-width:0.2;stroke-linecap:butt;stroke-linejoin:miter;stroke-miterlimit:1.42;stroke-dasharray:none;stroke-opacity:1"
         id="path202" />
      <text
         transform="matrix(0,1,1,0,62.8,11.2)"
         style="font-style:italic;font-variant:normal;font-weight:bold;font-size:26.5px;font-family:Helvetica;-inkscape-font-specification:Helvetica-BoldOblique;writing-mode:lr-tb;fill:#000000;fill-opacity:1;fill-rule:nonzero;stroke:none"
         id="text206"><tspan
           x="0"
           y="0"
           id="tspan204">X</tspan></text>
      <text
         transform="matrix(0,1,1,0,64.9995,327.0005)"
         style="font-style:italic;font-variant:normal;font-weight:bold;font-size:26.5px;font-family:Helvetica;-inkscape-font-specification:Helvetica-BoldOblique;writing-mode:lr-tb;fill:#000000;fill-opacity:1;fill-rule:nonzero;stroke:none"
         id="text210"><tspan
           x="0 17.675501"
           y="0"
           sodipodi:role="line"
           id="tspan208">X1</tspan></text>
      <text
         transform="matrix(0,1,1,0,68.1,651.501)"
         style="font-style:italic;font-variant:normal;font-weight:bold;font-size:26.5px;font-family:Helvetica;-inkscape-font-specification:Helvetica-BoldOblique;writing-mode:lr-tb;fill:#000000;fill-opacity:1;fill-rule:nonzero;stroke:none"
         id="text214"><tspan
           x="0 17.675501"
           y="0"
           sodipodi:role="line"
           id="tspan212">X2</tspan></text>
      <text
         transform="matrix(0,1,1,0,406.7011,250.9005)"
         style="font-style:italic;font-variant:normal;font-weight:bold;font-size:26.5px;font-family:Helvetica;-inkscape-font-specification:Helvetica-BoldOblique;writing-mode:lr-tb;fill:#000000;fill-opacity:1;fill-rule:nonzero;stroke:none"
         id="text218"><tspan
           x="0 17.675501"
           y="0"
           sodipodi:role="line"
           id="tspan216">Y0</tspan></text>
      <text
         transform="matrix(0,1,1,0,412.0011,595.0003)"
         style="font-style:italic;font-variant:normal;font-weight:bold;font-size:26.5px;font-family:Helvetica;-inkscape-font-specification:Helvetica-BoldOblique;writing-mode:lr-tb;fill:#000000;fill-opacity:1;fill-rule:nonzero;stroke:none"
         id="text222"><tspan
           x="0 17.675501"
           y="0"
           sodipodi:role="line"
           id="tspan220">Y1</tspan></text>
    </g>
  </g>
</svg>
